<svg width="76" height="68" viewBox="0 0 76 68" fill="none" xmlns="http://www.w3.org/2000/svg">
<g filter="url(#filter0_dddd_4108_1811)">
<path d="M12 11.897C12 7.47869 15.5817 3.89697 20 3.89697H56C60.4183 3.89697 64 7.4787 64 11.897V47.897C64 52.3153 60.4183 55.897 56 55.897H20C15.5817 55.897 12 52.3153 12 47.897V11.897Z" fill="#E5DEFF" shape-rendering="crispEdges"/>
<g filter="url(#filter1_iiii_4108_1811)">
<path d="M18 17.897C18 13.4787 21.5817 9.89697 26 9.89697H50C54.4183 9.89697 58 13.4787 58 17.897V41.897C58 46.3153 54.4183 49.897 50 49.897H26C21.5817 49.897 18 46.3153 18 41.897V17.897Z" fill="#E5DEFF"/>
<g clip-path="url(#clip0_4108_1811)">
<mask id="path-3-inside-1_4108_1811" fill="white">
<path fill-rule="evenodd" clip-rule="evenodd" d="M50 29.897C50 36.5244 44.6274 41.897 38 41.897C31.3726 41.897 26 36.5244 26 29.897C26 23.2696 31.3726 17.897 38 17.897C44.6274 17.897 50 23.2696 50 29.897ZM38.4301 26.756C37.263 27.2415 34.9303 28.2463 31.432 29.7704C30.864 29.9963 30.5664 30.2173 30.5393 30.4334C30.4935 30.7986 30.9508 30.9424 31.5736 31.1382C31.6583 31.1649 31.7461 31.1925 31.8361 31.2217C32.4488 31.4209 33.2729 31.6539 33.7014 31.6631C34.0901 31.6715 34.5238 31.5113 35.0028 31.1824C38.2713 28.9761 39.9585 27.8609 40.0644 27.8369C40.1392 27.8199 40.2427 27.7986 40.3129 27.8609C40.3831 27.9233 40.3762 28.0414 40.3687 28.0731C40.3234 28.2662 38.5282 29.9352 37.5992 30.7989C37.3096 31.0681 37.1042 31.2591 37.0622 31.3027C36.9681 31.4004 36.8722 31.4929 36.7801 31.5817C36.2109 32.1304 35.784 32.5419 36.8037 33.2139C37.2937 33.5368 37.6859 33.8038 38.077 34.0702C38.5043 34.3612 38.9304 34.6514 39.4817 35.0128C39.6222 35.1048 39.7563 35.2005 39.887 35.2936C40.3842 35.6481 40.8309 35.9665 41.3827 35.9157C41.7034 35.8862 42.0346 35.5847 42.2028 34.6854C42.6003 32.5602 43.3818 27.9556 43.5623 26.0581C43.5782 25.8918 43.5583 25.6791 43.5423 25.5857C43.5263 25.4923 43.4929 25.3592 43.3715 25.2607C43.2277 25.144 43.0058 25.1194 42.9065 25.1212C42.4551 25.1291 41.7627 25.3699 38.4301 26.756Z"/>
</mask>
<path d="M31.432 29.7704L31.8015 30.6996L31.8166 30.6937L31.8314 30.6872L31.432 29.7704ZM38.4301 26.756L38.0461 25.8327L38.4301 26.756ZM30.5393 30.4334L31.5315 30.5578V30.5578L30.5393 30.4334ZM31.5736 31.1382L31.2736 32.0922L31.2736 32.0922L31.5736 31.1382ZM31.8361 31.2217L32.1452 30.2707L32.1452 30.2707L31.8361 31.2217ZM33.7014 31.6631L33.6798 32.6629H33.6798L33.7014 31.6631ZM35.0028 31.1824L34.4433 30.3536L34.4367 30.3581L35.0028 31.1824ZM40.0644 27.8369L39.8431 26.8617H39.8431L40.0644 27.8369ZM40.3129 27.8609L40.9772 27.1135L40.9772 27.1135L40.3129 27.8609ZM40.3687 28.0731L39.3952 27.8447L39.3951 27.8447L40.3687 28.0731ZM37.5992 30.7989L38.2801 31.5313L37.5992 30.7989ZM37.0622 31.3027L37.7826 31.9963L37.7826 31.9963L37.0622 31.3027ZM36.7801 31.5817L36.0861 30.8618L36.0861 30.8618L36.7801 31.5817ZM36.8037 33.2139L37.354 32.3789H37.354L36.8037 33.2139ZM38.077 34.0702L37.5142 34.8968L38.077 34.0702ZM39.4817 35.0128L38.9335 35.8491L39.4817 35.0128ZM39.887 35.2936L39.3065 36.1079L39.3065 36.1079L39.887 35.2936ZM41.3827 35.9157L41.4743 36.9115H41.4743L41.3827 35.9157ZM42.2028 34.6854L41.2198 34.5016L41.2198 34.5016L42.2028 34.6854ZM43.5623 26.0581L42.5668 25.9633L42.5668 25.9633L43.5623 26.0581ZM43.5423 25.5857L42.5566 25.7544L42.5566 25.7544L43.5423 25.5857ZM43.3715 25.2607L42.7414 26.0372L42.7414 26.0372L43.3715 25.2607ZM42.9065 25.1212L42.8889 24.1213H42.8889L42.9065 25.1212ZM38 42.897C45.1797 42.897 51 37.0767 51 29.897H49C49 35.9721 44.0751 40.897 38 40.897V42.897ZM25 29.897C25 37.0767 30.8203 42.897 38 42.897V40.897C31.9249 40.897 27 35.9721 27 29.897H25ZM38 16.897C30.8203 16.897 25 22.7173 25 29.897H27C27 23.8218 31.9249 18.897 38 18.897V16.897ZM51 29.897C51 22.7173 45.1797 16.897 38 16.897V18.897C44.0751 18.897 49 23.8218 49 29.897H51ZM31.8314 30.6872C35.331 29.1625 37.656 28.1611 38.8142 27.6793L38.0461 25.8327C36.8699 26.3219 34.5295 27.3301 31.0326 28.8536L31.8314 30.6872ZM31.5315 30.5578C31.5121 30.7125 31.4499 30.8171 31.4131 30.8667C31.3785 30.9132 31.3569 30.9248 31.379 30.9084C31.3989 30.8936 31.4413 30.8658 31.5154 30.8275C31.5884 30.7898 31.6826 30.7469 31.8015 30.6996L31.0625 28.8412C30.7427 28.9684 30.4355 29.1179 30.1866 29.3028C29.9638 29.4682 29.6119 29.7922 29.5471 30.309L31.5315 30.5578ZM31.8736 30.1843C31.7128 30.1337 31.5883 30.0944 31.4817 30.056C31.3729 30.0168 31.3205 29.9917 31.3002 29.9801C31.2755 29.9661 31.3475 29.9998 31.421 30.1078C31.461 30.1667 31.4971 30.2415 31.5179 30.3291C31.5387 30.4164 31.5393 30.4954 31.5315 30.5578L29.5471 30.309C29.5058 30.6379 29.582 30.9601 29.7671 31.2323C29.9328 31.4761 30.1495 31.6265 30.3112 31.7185C30.6121 31.8897 31.0035 32.0072 31.2736 32.0922L31.8736 30.1843ZM32.1452 30.2707C32.0499 30.2397 31.9576 30.2107 31.8736 30.1843L31.2736 32.0922C31.359 32.119 31.4422 32.1452 31.5269 32.1727L32.1452 30.2707ZM33.723 30.6634C33.6302 30.6614 33.4114 30.6265 33.0811 30.5437C32.774 30.4667 32.4378 30.3658 32.1452 30.2707L31.5269 32.1727C31.847 32.2768 32.2293 32.392 32.5946 32.4836C32.9367 32.5694 33.3442 32.6556 33.6798 32.6629L33.723 30.6634ZM34.4367 30.3581C34.0496 30.6239 33.8218 30.6655 33.723 30.6634L33.6798 32.6629C34.3583 32.6776 34.9981 32.3987 35.5688 32.0068L34.4367 30.3581ZM39.8431 26.8617C39.737 26.8857 39.6563 26.9228 39.6391 26.9306C39.6065 26.9453 39.5783 26.9597 39.5588 26.97C39.5191 26.991 39.4782 27.0146 39.441 27.0366C39.3649 27.0817 39.2672 27.1424 39.1522 27.2154C38.9203 27.3628 38.5914 27.5773 38.1682 27.857C37.3204 28.4174 36.0782 29.25 34.4433 30.3536L35.5623 32.0113C37.1958 30.9086 38.4315 30.0804 39.271 29.5255C39.6914 29.2477 40.0084 29.041 40.2247 28.9035C40.3339 28.8342 40.4109 28.7866 40.4601 28.7575C40.4857 28.7424 40.495 28.7374 40.4933 28.7383C40.4928 28.7385 40.4805 28.7451 40.4606 28.7541C40.4562 28.756 40.3852 28.7895 40.2858 28.8121L39.8431 26.8617ZM40.9772 27.1135C40.6994 26.8666 40.3867 26.8207 40.1982 26.8192C40.0237 26.8178 39.8743 26.8546 39.8431 26.8617L40.2858 28.8121C40.3293 28.8022 40.269 28.8198 40.1826 28.8191C40.082 28.8183 39.8562 28.7929 39.6486 28.6084L40.9772 27.1135ZM41.3423 28.3015C41.3765 28.1555 41.3826 27.9905 41.3591 27.8319C41.3357 27.674 41.2588 27.3638 40.9772 27.1135L39.6485 28.6084C39.4371 28.4205 39.3919 28.2004 39.3807 28.1251C39.3735 28.0766 39.3724 28.0344 39.3737 27.9993C39.3747 27.9715 39.3781 27.9172 39.3952 27.8447L41.3423 28.3015ZM38.2801 31.5313C38.7433 31.1006 39.4309 30.4614 40.0089 29.9049C40.2969 29.6277 40.5659 29.3631 40.769 29.1515C40.8692 29.0471 40.9644 28.9441 41.0408 28.8532C41.0781 28.8087 41.1227 28.7532 41.1641 28.6931C41.18 28.67 41.2922 28.5151 41.3423 28.3015L39.3951 27.8447C39.4226 27.7279 39.4652 27.647 39.4785 27.6222C39.4967 27.5884 39.5118 27.5661 39.5167 27.559C39.5263 27.545 39.5268 27.546 39.5089 27.5673C39.4748 27.608 39.4151 27.6738 39.326 27.7666C39.1508 27.9492 38.9045 28.192 38.6218 28.4642C38.0586 29.0064 37.3841 29.6335 36.9183 30.0665L38.2801 31.5313ZM37.7826 31.9963C37.7807 31.9983 37.8177 31.9624 37.9212 31.8656C38.0125 31.7801 38.1348 31.6664 38.2801 31.5313L36.9183 30.0665C36.6495 30.3164 36.4092 30.5391 36.3418 30.6092L37.7826 31.9963ZM37.4741 32.3016C37.5644 32.2147 37.6735 32.1096 37.7826 31.9963L36.3418 30.6092C36.2627 30.6913 36.1801 30.7711 36.0861 30.8618L37.4741 32.3016ZM37.354 32.3789C37.258 32.3156 37.1956 32.2662 37.1571 32.2314C37.1181 32.1962 37.1128 32.1842 37.1217 32.1976C37.1322 32.2133 37.1583 32.2582 37.1743 32.3302C37.1909 32.405 37.19 32.48 37.1772 32.5451C37.1652 32.6057 37.1463 32.6414 37.1425 32.6481C37.1393 32.6539 37.1452 32.6422 37.1717 32.61C37.1978 32.5783 37.2349 32.5378 37.288 32.4839C37.3416 32.4295 37.4011 32.3721 37.4741 32.3016L36.0861 30.8618C35.9551 30.988 35.7765 31.1583 35.6288 31.3374C35.4837 31.5134 35.2874 31.7909 35.215 32.158C35.0352 33.0691 35.6964 33.6818 36.2535 34.0489L37.354 32.3789ZM38.6399 33.2437C38.2488 32.9773 37.851 32.7064 37.354 32.3789L36.2535 34.0489C36.7365 34.3672 37.123 34.6304 37.5142 34.8968L38.6399 33.2437ZM40.03 34.1764C39.4867 33.8203 39.067 33.5345 38.6399 33.2437L37.5142 34.8968C37.9416 35.1878 38.3741 35.4824 38.9335 35.8491L40.03 34.1764ZM40.4675 34.4794C40.3392 34.3879 40.1894 34.2809 40.03 34.1764L38.9335 35.8491C39.055 35.9287 39.1735 36.0131 39.3065 36.1079L40.4675 34.4794ZM41.2911 34.9199C41.2462 34.9241 41.181 34.9199 41.0502 34.8566C40.8976 34.7827 40.7323 34.6681 40.4675 34.4794L39.3065 36.1079C39.7288 36.4089 40.487 37.0024 41.4743 36.9115L41.2911 34.9199ZM41.2198 34.5016C41.1509 34.8702 41.067 35.0041 41.0505 35.0259C41.0464 35.0314 41.0649 35.0054 41.1144 34.9762C41.1659 34.9458 41.2278 34.9258 41.2911 34.9199L41.4743 36.9115C42.5117 36.8161 42.9997 35.8638 43.1857 34.8693L41.2198 34.5016ZM42.5668 25.9633C42.3911 27.8099 41.618 32.3728 41.2198 34.5016L43.1857 34.8693C43.5826 32.7476 44.3724 28.1012 44.5578 26.1528L42.5668 25.9633ZM42.5566 25.7544C42.5563 25.7525 42.5579 25.7622 42.5602 25.7833C42.5623 25.8029 42.5644 25.8269 42.5659 25.8528C42.5674 25.8788 42.5682 25.9034 42.5681 25.9248C42.5681 25.9471 42.5672 25.9597 42.5668 25.9633L44.5578 26.1528C44.5845 25.8729 44.5537 25.5674 44.5279 25.417L42.5566 25.7544ZM42.7414 26.0372C42.5709 25.8988 42.5513 25.7233 42.5566 25.7544L44.5279 25.417C44.5013 25.2612 44.4149 24.8196 44.0016 24.4842L42.7414 26.0372ZM42.9241 26.121C42.9132 26.1212 42.9062 26.121 42.9029 26.1208C42.8993 26.1207 42.8972 26.1205 42.8965 26.1204C42.8957 26.1203 42.8941 26.1201 42.8899 26.1192C42.8863 26.1183 42.8723 26.1148 42.8503 26.1051C42.8288 26.0957 42.7886 26.0755 42.7414 26.0372L44.0016 24.4842C43.7708 24.2969 43.5211 24.2137 43.3547 24.1739C43.1819 24.1326 43.0173 24.1191 42.8889 24.1213L42.9241 26.121ZM38.8142 27.6793C40.4841 26.9848 41.4691 26.5871 42.0899 26.3618C42.7279 26.1303 42.8781 26.1218 42.9241 26.121L42.8889 24.1213C42.4835 24.1285 42.0618 24.2444 41.4077 24.4818C40.7363 24.7254 39.7087 25.1412 38.0461 25.8327L38.8142 27.6793Z" fill="#030303" mask="url(#path-3-inside-1_4108_1811)"/>
</g>
</g>
</g>
<defs>
<filter id="filter0_dddd_4108_1811" x="0" y="0.896973" width="76" height="67" filterUnits="userSpaceOnUse" color-interpolation-filters="sRGB">
<feFlood flood-opacity="0" result="BackgroundImageFix"/>
<feColorMatrix in="SourceAlpha" type="matrix" values="0 0 0 0 0 0 0 0 0 0 0 0 0 0 0 0 0 0 127 0" result="hardAlpha"/>
<feOffset dx="5" dy="5"/>
<feGaussianBlur stdDeviation="3.5"/>
<feComposite in2="hardAlpha" operator="out"/>
<feColorMatrix type="matrix" values="0 0 0 0 0 0 0 0 0 0 0 0 0 0 0 0 0 0 0.25 0"/>
<feBlend mode="normal" in2="BackgroundImageFix" result="effect1_dropShadow_4108_1811"/>
<feColorMatrix in="SourceAlpha" type="matrix" values="0 0 0 0 0 0 0 0 0 0 0 0 0 0 0 0 0 0 127 0" result="hardAlpha"/>
<feOffset dx="1" dy="1"/>
<feGaussianBlur stdDeviation="1"/>
<feComposite in2="hardAlpha" operator="out"/>
<feColorMatrix type="matrix" values="0 0 0 0 0 0 0 0 0 0 0 0 0 0 0 0 0 0 0.25 0"/>
<feBlend mode="normal" in2="effect1_dropShadow_4108_1811" result="effect2_dropShadow_4108_1811"/>
<feColorMatrix in="SourceAlpha" type="matrix" values="0 0 0 0 0 0 0 0 0 0 0 0 0 0 0 0 0 0 127 0" result="hardAlpha"/>
<feOffset dx="-5" dy="5"/>
<feGaussianBlur stdDeviation="3.5"/>
<feComposite in2="hardAlpha" operator="out"/>
<feColorMatrix type="matrix" values="0 0 0 0 0.811765 0 0 0 0 0.811765 0 0 0 0 0.811765 0 0 0 0.15 0"/>
<feBlend mode="normal" in2="effect2_dropShadow_4108_1811" result="effect3_dropShadow_4108_1811"/>
<feColorMatrix in="SourceAlpha" type="matrix" values="0 0 0 0 0 0 0 0 0 0 0 0 0 0 0 0 0 0 127 0" result="hardAlpha"/>
<feOffset dx="-1" dy="-1"/>
<feGaussianBlur stdDeviation="1"/>
<feComposite in2="hardAlpha" operator="out"/>
<feColorMatrix type="matrix" values="0 0 0 0 0.952941 0 0 0 0 0.952941 0 0 0 0 0.952941 0 0 0 0.25 0"/>
<feBlend mode="normal" in2="effect3_dropShadow_4108_1811" result="effect4_dropShadow_4108_1811"/>
<feBlend mode="normal" in="SourceGraphic" in2="effect4_dropShadow_4108_1811" result="shape"/>
</filter>
<filter id="filter1_iiii_4108_1811" x="13" y="4.89697" width="50" height="50" filterUnits="userSpaceOnUse" color-interpolation-filters="sRGB">
<feFlood flood-opacity="0" result="BackgroundImageFix"/>
<feBlend mode="normal" in="SourceGraphic" in2="BackgroundImageFix" result="shape"/>
<feColorMatrix in="SourceAlpha" type="matrix" values="0 0 0 0 0 0 0 0 0 0 0 0 0 0 0 0 0 0 127 0" result="hardAlpha"/>
<feOffset dx="5" dy="5"/>
<feGaussianBlur stdDeviation="3.5"/>
<feComposite in2="hardAlpha" operator="arithmetic" k2="-1" k3="1"/>
<feColorMatrix type="matrix" values="0 0 0 0 0 0 0 0 0 0 0 0 0 0 0 0 0 0 0.25 0"/>
<feBlend mode="normal" in2="shape" result="effect1_innerShadow_4108_1811"/>
<feColorMatrix in="SourceAlpha" type="matrix" values="0 0 0 0 0 0 0 0 0 0 0 0 0 0 0 0 0 0 127 0" result="hardAlpha"/>
<feOffset dx="1" dy="1"/>
<feGaussianBlur stdDeviation="1"/>
<feComposite in2="hardAlpha" operator="arithmetic" k2="-1" k3="1"/>
<feColorMatrix type="matrix" values="0 0 0 0 0 0 0 0 0 0 0 0 0 0 0 0 0 0 0.25 0"/>
<feBlend mode="normal" in2="effect1_innerShadow_4108_1811" result="effect2_innerShadow_4108_1811"/>
<feColorMatrix in="SourceAlpha" type="matrix" values="0 0 0 0 0 0 0 0 0 0 0 0 0 0 0 0 0 0 127 0" result="hardAlpha"/>
<feOffset dx="-5" dy="-5"/>
<feGaussianBlur stdDeviation="3.5"/>
<feComposite in2="hardAlpha" operator="arithmetic" k2="-1" k3="1"/>
<feColorMatrix type="matrix" values="0 0 0 0 0.952941 0 0 0 0 0.952941 0 0 0 0 0.952941 0 0 0 0.25 0"/>
<feBlend mode="normal" in2="effect2_innerShadow_4108_1811" result="effect3_innerShadow_4108_1811"/>
<feColorMatrix in="SourceAlpha" type="matrix" values="0 0 0 0 0 0 0 0 0 0 0 0 0 0 0 0 0 0 127 0" result="hardAlpha"/>
<feOffset dx="-1" dy="-1"/>
<feGaussianBlur stdDeviation="1"/>
<feComposite in2="hardAlpha" operator="arithmetic" k2="-1" k3="1"/>
<feColorMatrix type="matrix" values="0 0 0 0 0.952941 0 0 0 0 0.952941 0 0 0 0 0.952941 0 0 0 0.25 0"/>
<feBlend mode="normal" in2="effect3_innerShadow_4108_1811" result="effect4_innerShadow_4108_1811"/>
</filter>
<clipPath id="clip0_4108_1811">
<rect width="24" height="24" fill="white" transform="translate(26 17.897)"/>
</clipPath>
</defs>
</svg>
